<svg xmlns="http://www.w3.org/2000/svg" version="1.1" xmlns:xlink="http://www.w3.org/1999/xlink" xmlns:svgjs="http://svgjs.dev/svgjs" viewBox="0 0 800 800" width="800" height="800"><g stroke-width="3.5" stroke="hsl(17, 100%, 56%)" fill="none"><circle r="4.289473684210526" cx="0" cy="0" fill="hsl(17, 100%, 56%)" stroke="none"></circle><circle r="4.289473684210526" cx="88.88888888888889" cy="0" fill="hsl(17, 100%, 56%)" stroke="none"></circle><circle r="4.289473684210526" cx="177.77777777777777" cy="0" fill="hsl(17, 100%, 56%)" stroke="none"></circle><circle r="4.289473684210526" cx="266.66666666666663" cy="0" fill="hsl(17, 100%, 56%)" stroke="none"></circle><circle r="4.289473684210526" cx="355.55555555555554" cy="0" fill="hsl(17, 100%, 56%)" stroke="none"></circle><circle r="4.289473684210526" cx="444.44444444444446" cy="0" fill="hsl(17, 100%, 56%)" stroke="none"></circle><circle r="4.289473684210526" cx="533.3333333333334" cy="0" fill="hsl(17, 100%, 56%)" stroke="none"></circle><circle r="4.289473684210526" cx="622.2222222222223" cy="0" fill="hsl(17, 100%, 56%)" stroke="none"></circle><circle r="4.289473684210526" cx="711.1111111111112" cy="0" fill="hsl(17, 100%, 56%)" stroke="none"></circle><circle r="4.289473684210526" cx="800.0000000000001" cy="0" fill="hsl(17, 100%, 56%)" stroke="none"></circle><circle r="4.289473684210526" cx="0" cy="66.66666666666667" fill="hsl(17, 100%, 56%)" stroke="none"></circle><circle r="4.289473684210526" cx="88.88888888888889" cy="66.66666666666667" fill="hsl(17, 100%, 56%)" stroke="none"></circle><circle r="4.289473684210526" cx="177.77777777777777" cy="66.66666666666667" fill="hsl(17, 100%, 56%)" stroke="none"></circle><circle r="4.289473684210526" cx="266.66666666666663" cy="66.66666666666667" fill="hsl(17, 100%, 56%)" stroke="none"></circle><circle r="4.289473684210526" cx="355.55555555555554" cy="66.66666666666667" fill="hsl(17, 100%, 56%)" stroke="none"></circle><circle r="4.289473684210526" cx="444.44444444444446" cy="66.66666666666667" fill="hsl(17, 100%, 56%)" stroke="none"></circle><circle r="4.289473684210526" cx="533.3333333333334" cy="66.66666666666667" fill="hsl(17, 100%, 56%)" stroke="none"></circle><circle r="4.289473684210526" cx="622.2222222222223" cy="66.66666666666667" fill="hsl(17, 100%, 56%)" stroke="none"></circle><circle r="4.289473684210526" cx="711.1111111111112" cy="66.66666666666667" fill="hsl(17, 100%, 56%)" stroke="none"></circle><circle r="4.289473684210526" cx="800.0000000000001" cy="66.66666666666667" fill="hsl(17, 100%, 56%)" stroke="none"></circle><circle r="4.289473684210526" cx="0" cy="133.33333333333334" fill="hsl(17, 100%, 56%)" stroke="none"></circle><circle r="4.289473684210526" cx="88.88888888888889" cy="133.33333333333334" fill="hsl(17, 100%, 56%)" stroke="none"></circle><circle r="4.289473684210526" cx="177.77777777777777" cy="133.33333333333334" fill="hsl(17, 100%, 56%)" stroke="none"></circle><circle r="4.289473684210526" cx="266.66666666666663" cy="133.33333333333334" fill="hsl(17, 100%, 56%)" stroke="none"></circle><circle r="4.289473684210526" cx="355.55555555555554" cy="133.33333333333334" fill="hsl(17, 100%, 56%)" stroke="none"></circle><circle r="4.289473684210526" cx="444.44444444444446" cy="133.33333333333334" fill="hsl(17, 100%, 56%)" stroke="none"></circle><circle r="4.289473684210526" cx="533.3333333333334" cy="133.33333333333334" fill="hsl(17, 100%, 56%)" stroke="none"></circle><circle r="4.289473684210526" cx="622.2222222222223" cy="133.33333333333334" fill="hsl(17, 100%, 56%)" stroke="none"></circle><circle r="4.289473684210526" cx="711.1111111111112" cy="133.33333333333334" fill="hsl(17, 100%, 56%)" stroke="none"></circle><circle r="4.289473684210526" cx="800.0000000000001" cy="133.33333333333334" fill="hsl(17, 100%, 56%)" stroke="none"></circle><circle r="4.289473684210526" cx="0" cy="200" fill="hsl(17, 100%, 56%)" stroke="none"></circle><circle r="4.289473684210526" cx="88.88888888888889" cy="200" fill="hsl(17, 100%, 56%)" stroke="none"></circle><circle r="4.289473684210526" cx="177.77777777777777" cy="200" fill="hsl(17, 100%, 56%)" stroke="none"></circle><circle r="4.289473684210526" cx="266.66666666666663" cy="200" fill="hsl(17, 100%, 56%)" stroke="none"></circle><circle r="4.289473684210526" cx="355.55555555555554" cy="200" fill="hsl(17, 100%, 56%)" stroke="none"></circle><circle r="4.289473684210526" cx="444.44444444444446" cy="200" fill="hsl(17, 100%, 56%)" stroke="none"></circle><circle r="4.289473684210526" cx="533.3333333333334" cy="200" fill="hsl(17, 100%, 56%)" stroke="none"></circle><circle r="4.289473684210526" cx="622.2222222222223" cy="200" fill="hsl(17, 100%, 56%)" stroke="none"></circle><circle r="4.289473684210526" cx="711.1111111111112" cy="200" fill="hsl(17, 100%, 56%)" stroke="none"></circle><circle r="4.289473684210526" cx="800.0000000000001" cy="200" fill="hsl(17, 100%, 56%)" stroke="none"></circle><circle r="4.289473684210526" cx="0" cy="266.6666666666667" fill="hsl(17, 100%, 56%)" stroke="none"></circle><circle r="4.289473684210526" cx="88.88888888888889" cy="266.6666666666667" fill="hsl(17, 100%, 56%)" stroke="none"></circle><circle r="4.289473684210526" cx="177.77777777777777" cy="266.6666666666667" fill="hsl(17, 100%, 56%)" stroke="none"></circle><circle r="4.289473684210526" cx="266.66666666666663" cy="266.6666666666667" fill="hsl(17, 100%, 56%)" stroke="none"></circle><circle r="4.289473684210526" cx="355.55555555555554" cy="266.6666666666667" fill="hsl(17, 100%, 56%)" stroke="none"></circle><circle r="4.289473684210526" cx="444.44444444444446" cy="266.6666666666667" fill="hsl(17, 100%, 56%)" stroke="none"></circle><circle r="4.289473684210526" cx="533.3333333333334" cy="266.6666666666667" fill="hsl(17, 100%, 56%)" stroke="none"></circle><circle r="4.289473684210526" cx="622.2222222222223" cy="266.6666666666667" fill="hsl(17, 100%, 56%)" stroke="none"></circle><circle r="4.289473684210526" cx="711.1111111111112" cy="266.6666666666667" fill="hsl(17, 100%, 56%)" stroke="none"></circle><circle r="4.289473684210526" cx="800.0000000000001" cy="266.6666666666667" fill="hsl(17, 100%, 56%)" stroke="none"></circle><circle r="4.289473684210526" cx="0" cy="333.33333333333337" fill="hsl(17, 100%, 56%)" stroke="none"></circle><circle r="4.289473684210526" cx="88.88888888888889" cy="333.33333333333337" fill="hsl(17, 100%, 56%)" stroke="none"></circle><circle r="4.289473684210526" cx="177.77777777777777" cy="333.33333333333337" fill="hsl(17, 100%, 56%)" stroke="none"></circle><circle r="4.289473684210526" cx="266.66666666666663" cy="333.33333333333337" fill="hsl(17, 100%, 56%)" stroke="none"></circle><circle r="4.289473684210526" cx="355.55555555555554" cy="333.33333333333337" fill="hsl(17, 100%, 56%)" stroke="none"></circle><circle r="4.289473684210526" cx="444.44444444444446" cy="333.33333333333337" fill="hsl(17, 100%, 56%)" stroke="none"></circle><circle r="4.289473684210526" cx="533.3333333333334" cy="333.33333333333337" fill="hsl(17, 100%, 56%)" stroke="none"></circle><circle r="4.289473684210526" cx="622.2222222222223" cy="333.33333333333337" fill="hsl(17, 100%, 56%)" stroke="none"></circle><circle r="4.289473684210526" cx="711.1111111111112" cy="333.33333333333337" fill="hsl(17, 100%, 56%)" stroke="none"></circle><circle r="4.289473684210526" cx="800.0000000000001" cy="333.33333333333337" fill="hsl(17, 100%, 56%)" stroke="none"></circle><circle r="4.289473684210526" cx="0" cy="400.00000000000006" fill="hsl(17, 100%, 56%)" stroke="none"></circle><circle r="4.289473684210526" cx="88.88888888888889" cy="400.00000000000006" fill="hsl(17, 100%, 56%)" stroke="none"></circle><circle r="4.289473684210526" cx="177.77777777777777" cy="400.00000000000006" fill="hsl(17, 100%, 56%)" stroke="none"></circle><circle r="4.289473684210526" cx="266.66666666666663" cy="400.00000000000006" fill="hsl(17, 100%, 56%)" stroke="none"></circle><circle r="4.289473684210526" cx="355.55555555555554" cy="400.00000000000006" fill="hsl(17, 100%, 56%)" stroke="none"></circle><circle r="4.289473684210526" cx="444.44444444444446" cy="400.00000000000006" fill="hsl(17, 100%, 56%)" stroke="none"></circle><circle r="4.289473684210526" cx="533.3333333333334" cy="400.00000000000006" fill="hsl(17, 100%, 56%)" stroke="none"></circle><circle r="4.289473684210526" cx="622.2222222222223" cy="400.00000000000006" fill="hsl(17, 100%, 56%)" stroke="none"></circle><circle r="4.289473684210526" cx="711.1111111111112" cy="400.00000000000006" fill="hsl(17, 100%, 56%)" stroke="none"></circle><circle r="4.289473684210526" cx="800.0000000000001" cy="400.00000000000006" fill="hsl(17, 100%, 56%)" stroke="none"></circle><circle r="4.289473684210526" cx="0" cy="466.66666666666674" fill="hsl(17, 100%, 56%)" stroke="none"></circle><circle r="4.289473684210526" cx="88.88888888888889" cy="466.66666666666674" fill="hsl(17, 100%, 56%)" stroke="none"></circle><circle r="4.289473684210526" cx="177.77777777777777" cy="466.66666666666674" fill="hsl(17, 100%, 56%)" stroke="none"></circle><circle r="4.289473684210526" cx="266.66666666666663" cy="466.66666666666674" fill="hsl(17, 100%, 56%)" stroke="none"></circle><circle r="4.289473684210526" cx="355.55555555555554" cy="466.66666666666674" fill="hsl(17, 100%, 56%)" stroke="none"></circle><circle r="4.289473684210526" cx="444.44444444444446" cy="466.66666666666674" fill="hsl(17, 100%, 56%)" stroke="none"></circle><circle r="4.289473684210526" cx="533.3333333333334" cy="466.66666666666674" fill="hsl(17, 100%, 56%)" stroke="none"></circle><circle r="4.289473684210526" cx="622.2222222222223" cy="466.66666666666674" fill="hsl(17, 100%, 56%)" stroke="none"></circle><circle r="4.289473684210526" cx="711.1111111111112" cy="466.66666666666674" fill="hsl(17, 100%, 56%)" stroke="none"></circle><circle r="4.289473684210526" cx="800.0000000000001" cy="466.66666666666674" fill="hsl(17, 100%, 56%)" stroke="none"></circle><circle r="4.289473684210526" cx="0" cy="533.3333333333334" fill="hsl(17, 100%, 56%)" stroke="none"></circle><circle r="4.289473684210526" cx="88.88888888888889" cy="533.3333333333334" fill="hsl(17, 100%, 56%)" stroke="none"></circle><circle r="4.289473684210526" cx="177.77777777777777" cy="533.3333333333334" fill="hsl(17, 100%, 56%)" stroke="none"></circle><circle r="4.289473684210526" cx="266.66666666666663" cy="533.3333333333334" fill="hsl(17, 100%, 56%)" stroke="none"></circle><circle r="4.289473684210526" cx="355.55555555555554" cy="533.3333333333334" fill="hsl(17, 100%, 56%)" stroke="none"></circle><circle r="4.289473684210526" cx="444.44444444444446" cy="533.3333333333334" fill="hsl(17, 100%, 56%)" stroke="none"></circle><circle r="4.289473684210526" cx="533.3333333333334" cy="533.3333333333334" fill="hsl(17, 100%, 56%)" stroke="none"></circle><circle r="4.289473684210526" cx="622.2222222222223" cy="533.3333333333334" fill="hsl(17, 100%, 56%)" stroke="none"></circle><circle r="4.289473684210526" cx="711.1111111111112" cy="533.3333333333334" fill="hsl(17, 100%, 56%)" stroke="none"></circle><circle r="4.289473684210526" cx="800.0000000000001" cy="533.3333333333334" fill="hsl(17, 100%, 56%)" stroke="none"></circle><circle r="4.289473684210526" cx="0" cy="600" fill="hsl(17, 100%, 56%)" stroke="none"></circle><circle r="4.289473684210526" cx="88.88888888888889" cy="600" fill="hsl(17, 100%, 56%)" stroke="none"></circle><circle r="4.289473684210526" cx="177.77777777777777" cy="600" fill="hsl(17, 100%, 56%)" stroke="none"></circle><circle r="4.289473684210526" cx="266.66666666666663" cy="600" fill="hsl(17, 100%, 56%)" stroke="none"></circle><circle r="4.289473684210526" cx="355.55555555555554" cy="600" fill="hsl(17, 100%, 56%)" stroke="none"></circle><circle r="4.289473684210526" cx="444.44444444444446" cy="600" fill="hsl(17, 100%, 56%)" stroke="none"></circle><circle r="4.289473684210526" cx="533.3333333333334" cy="600" fill="hsl(17, 100%, 56%)" stroke="none"></circle><circle r="4.289473684210526" cx="622.2222222222223" cy="600" fill="hsl(17, 100%, 56%)" stroke="none"></circle><circle r="4.289473684210526" cx="711.1111111111112" cy="600" fill="hsl(17, 100%, 56%)" stroke="none"></circle><circle r="4.289473684210526" cx="800.0000000000001" cy="600" fill="hsl(17, 100%, 56%)" stroke="none"></circle><circle r="4.289473684210526" cx="0" cy="666.6666666666666" fill="hsl(17, 100%, 56%)" stroke="none"></circle><circle r="4.289473684210526" cx="88.88888888888889" cy="666.6666666666666" fill="hsl(17, 100%, 56%)" stroke="none"></circle><circle r="4.289473684210526" cx="177.77777777777777" cy="666.6666666666666" fill="hsl(17, 100%, 56%)" stroke="none"></circle><circle r="4.289473684210526" cx="266.66666666666663" cy="666.6666666666666" fill="hsl(17, 100%, 56%)" stroke="none"></circle><circle r="4.289473684210526" cx="355.55555555555554" cy="666.6666666666666" fill="hsl(17, 100%, 56%)" stroke="none"></circle><circle r="4.289473684210526" cx="444.44444444444446" cy="666.6666666666666" fill="hsl(17, 100%, 56%)" stroke="none"></circle><circle r="4.289473684210526" cx="533.3333333333334" cy="666.6666666666666" fill="hsl(17, 100%, 56%)" stroke="none"></circle><circle r="4.289473684210526" cx="622.2222222222223" cy="666.6666666666666" fill="hsl(17, 100%, 56%)" stroke="none"></circle><circle r="4.289473684210526" cx="711.1111111111112" cy="666.6666666666666" fill="hsl(17, 100%, 56%)" stroke="none"></circle><circle r="4.289473684210526" cx="800.0000000000001" cy="666.6666666666666" fill="hsl(17, 100%, 56%)" stroke="none"></circle><circle r="4.289473684210526" cx="0" cy="733.3333333333333" fill="hsl(17, 100%, 56%)" stroke="none"></circle><circle r="4.289473684210526" cx="88.88888888888889" cy="733.3333333333333" fill="hsl(17, 100%, 56%)" stroke="none"></circle><circle r="4.289473684210526" cx="177.77777777777777" cy="733.3333333333333" fill="hsl(17, 100%, 56%)" stroke="none"></circle><circle r="4.289473684210526" cx="266.66666666666663" cy="733.3333333333333" fill="hsl(17, 100%, 56%)" stroke="none"></circle><circle r="4.289473684210526" cx="355.55555555555554" cy="733.3333333333333" fill="hsl(17, 100%, 56%)" stroke="none"></circle><circle r="4.289473684210526" cx="444.44444444444446" cy="733.3333333333333" fill="hsl(17, 100%, 56%)" stroke="none"></circle><circle r="4.289473684210526" cx="533.3333333333334" cy="733.3333333333333" fill="hsl(17, 100%, 56%)" stroke="none"></circle><circle r="4.289473684210526" cx="622.2222222222223" cy="733.3333333333333" fill="hsl(17, 100%, 56%)" stroke="none"></circle><circle r="4.289473684210526" cx="711.1111111111112" cy="733.3333333333333" fill="hsl(17, 100%, 56%)" stroke="none"></circle><circle r="4.289473684210526" cx="800.0000000000001" cy="733.3333333333333" fill="hsl(17, 100%, 56%)" stroke="none"></circle><circle r="4.289473684210526" cx="0" cy="799.9999999999999" fill="hsl(17, 100%, 56%)" stroke="none"></circle><circle r="4.289473684210526" cx="88.88888888888889" cy="799.9999999999999" fill="hsl(17, 100%, 56%)" stroke="none"></circle><circle r="4.289473684210526" cx="177.77777777777777" cy="799.9999999999999" fill="hsl(17, 100%, 56%)" stroke="none"></circle><circle r="4.289473684210526" cx="266.66666666666663" cy="799.9999999999999" fill="hsl(17, 100%, 56%)" stroke="none"></circle><circle r="4.289473684210526" cx="355.55555555555554" cy="799.9999999999999" fill="hsl(17, 100%, 56%)" stroke="none"></circle><circle r="4.289473684210526" cx="444.44444444444446" cy="799.9999999999999" fill="hsl(17, 100%, 56%)" stroke="none"></circle><circle r="4.289473684210526" cx="533.3333333333334" cy="799.9999999999999" fill="hsl(17, 100%, 56%)" stroke="none"></circle><circle r="4.289473684210526" cx="622.2222222222223" cy="799.9999999999999" fill="hsl(17, 100%, 56%)" stroke="none"></circle><circle r="4.289473684210526" cx="711.1111111111112" cy="799.9999999999999" fill="hsl(17, 100%, 56%)" stroke="none"></circle><circle r="4.289473684210526" cx="800.0000000000001" cy="799.9999999999999" fill="hsl(17, 100%, 56%)" stroke="none"></circle></g></svg>